<?xml version="1.0" encoding="UTF-8"?>
<svg width="600" height="400" viewBox="0 0 600 400" xmlns="http://www.w3.org/2000/svg">
    <!-- Définition des gradients -->
    <defs>
        <linearGradient id="docGradient" x1="0%" y1="0%" x2="100%" y2="100%">
            <stop offset="0%" style="stop-color:#e9ecef;stop-opacity:1" />
            <stop offset="100%" style="stop-color:#dee2e6;stop-opacity:1" />
        </linearGradient>
        <linearGradient id="headerGradient" x1="0%" y1="0%" x2="100%" y2="0%">
            <stop offset="0%" style="stop-color:#0d6efd;stop-opacity:1" />
            <stop offset="100%" style="stop-color:#0a58ca;stop-opacity:1" />
        </linearGradient>
        <!-- Ajout d'un filtre d'ombre pour les icônes -->
        <filter id="shadow" x="-20%" y="-20%" width="140%" height="140%">
            <feGaussianBlur in="SourceAlpha" stdDeviation="2"/>
            <feOffset dx="2" dy="2" result="offsetblur"/>
            <feComponentTransfer>
                <feFuncA type="linear" slope="0.3"/>
            </feComponentTransfer>
            <feMerge>
                <feMergeNode/>
                <feMergeNode in="SourceGraphic"/>
            </feMerge>
        </filter>
    </defs>
    
    <!-- Fond -->
    <rect width="600" height="400" fill="#ffffff"/>
    
    <!-- Documents -->
    <g transform="translate(100, 100)">
        <!-- Document 1 -->
        <rect x="0" y="0" width="120" height="160" fill="url(#docGradient)" rx="5"/>
        <rect x="10" y="10" width="100" height="20" fill="url(#headerGradient)" rx="3"/>
        <rect x="10" y="40" width="100" height="10" fill="#dee2e6" rx="2"/>
        <rect x="10" y="60" width="100" height="10" fill="#dee2e6" rx="2"/>
        <rect x="10" y="80" width="60" height="10" fill="#dee2e6" rx="2"/>
        
        <!-- Document 2 -->
        <rect x="140" y="20" width="120" height="160" fill="url(#docGradient)" rx="5"/>
        <rect x="150" y="30" width="100" height="20" fill="url(#headerGradient)" rx="3"/>
        <rect x="150" y="60" width="100" height="10" fill="#dee2e6" rx="2"/>
        <rect x="150" y="80" width="100" height="10" fill="#dee2e6" rx="2"/>
        <rect x="150" y="100" width="60" height="10" fill="#dee2e6" rx="2"/>
        
        <!-- Document 3 -->
        <rect x="280" y="40" width="120" height="160" fill="url(#docGradient)" rx="5"/>
        <rect x="290" y="50" width="100" height="20" fill="url(#headerGradient)" rx="3"/>
        <rect x="290" y="80" width="100" height="10" fill="#dee2e6" rx="2"/>
        <rect x="290" y="100" width="100" height="10" fill="#dee2e6" rx="2"/>
        <rect x="290" y="120" width="60" height="10" fill="#dee2e6" rx="2"/>
    </g>
    
    <!-- Icônes améliorées -->
    <g transform="translate(50, 50)">
        <!-- Icône de validation -->
        <circle cx="0" cy="0" r="25" fill="url(#headerGradient)" filter="url(#shadow)"/>
        <path d="M-8,0 L8,12 L24,-12" stroke="white" stroke-width="4" stroke-linecap="round" fill="none"/>
        
        <!-- Icône de recherche -->
        <circle cx="100" cy="0" r="25" fill="url(#headerGradient)" filter="url(#shadow)"/>
        <circle cx="100" cy="0" r="15" stroke="white" stroke-width="4" fill="none"/>
        <path d="M110,10 L120,20" stroke="white" stroke-width="4" stroke-linecap="round"/>
        
        <!-- Icône de partage -->
        <circle cx="200" cy="0" r="25" fill="url(#headerGradient)" filter="url(#shadow)"/>
        <path d="M-12,-12 L12,12 M12,-12 L-12,12" stroke="white" stroke-width="4" stroke-linecap="round"/>
    </g>
</svg> 